<?xml version="1.0" standalone="no"?>
<!DOCTYPE svg PUBLIC "-//W3C//DTD SVG 20010904//EN"
 "http://www.w3.org/TR/2001/REC-SVG-20010904/DTD/svg10.dtd">
<svg version="1.0" xmlns="http://www.w3.org/2000/svg"
 width="380.000000pt" height="380.000000pt" viewBox="0 0 380.000000 380.000000"
 preserveAspectRatio="xMidYMid meet">
<metadata>
Created by potrace 1.11, written by Peter Selinger 2001-2013
</metadata>
<g transform="translate(0.000000,380.000000) scale(0.100000,-0.100000)"
fill="#000000" stroke="none">
<path d="M1008 2811 c-494 -494 -898 -902 -898 -907 0 -5 83 -92 185 -194 102
-103 185 -184 185 -181 0 3 8 -6 17 -19 9 -14 25 -31 35 -38 18 -13 22 -17 84
-83 23 -24 50 -51 60 -60 11 -9 26 -25 35 -35 9 -10 63 -65 120 -121 57 -56
225 -224 374 -373 148 -148 273 -270 278 -270 4 0 5 -4 2 -10 -3 -5 -2 -10 3
-10 10 0 -4 13 232 -224 101 -102 187 -186 191 -186 4 0 413 406 909 902 l901
901 -178 182 c-98 100 -183 183 -190 184 -6 0 -13 6 -15 11 -5 15 -371 380
-380 380 -4 0 -8 3 -8 8 0 8 -1026 1036 -1038 1039 -4 1 -411 -402 -904 -896z"/>
</g>
</svg>
